<?xml version="1.0" encoding="utf-8"?>
<!-- Generator: Adobe Illustrator 24.1.2, SVG Export Plug-In . SVG Version: 6.00 Build 0)  -->
<svg version="1.1" id="Layer_1" xmlns="http://www.w3.org/2000/svg" xmlns:xlink="http://www.w3.org/1999/xlink" x="0px" y="0px"
	 viewBox="0 0 18.5 14.9" style="enable-background:new 0 0 18.5 14.9;" xml:space="preserve">
<style type="text/css">
	.st0{fill:#FFC41D;}
</style>
<g transform="translate(0.000000,96.000000) scale(0.100000,-0.100000)">
	<path class="st0" d="M84.9,942.4c-10.6-7.2-14.2-21.3-8.1-32.3c6.4-11.3,17.7-15.1,28-9.3c15.8,8.8,16.6,31.5,1.4,41.6
		c-2.8,1.9-7.7,3.4-10.6,3.4S87.7,944.3,84.9,942.4z M101.7,928.6c1.7-1.9,3.1-5,3.1-6.9c0-4.5-5.3-10.3-9.4-10.3
		c-1.7,0-4.5,1.5-6.3,3.4s-3.1,5-3.1,6.9s1.4,5,3.1,6.9s4.5,3.4,6.3,3.4S100,930.5,101.7,928.6z"/>
	<path class="st0" d="M41,922.8c-13.6-8.3-7.8-32,7.7-32c8,0,15.6,8.4,15.6,17C64.2,920.7,51.3,929.1,41,922.8z M52.5,908
		c0-3.1-0.9-4.5-3.6-4.8c-3.8-0.7-5.9,3.1-4.4,7.6c0.5,1.5,2.3,2.4,4.4,2.1C51.6,912.5,52.5,911.1,52.5,908z"/>
	<path class="st0" d="M134.7,922.8c-13.6-8.3-7.8-32,7.7-32c8,0,15.6,8.4,15.6,17C158,920.7,145,929.1,134.7,922.8z M146.3,908
		c0-3.1-0.9-4.5-3.6-4.8c-2-0.3-3.9,0.5-4.4,2.1c-1.6,4.5,0.6,8.3,4.4,7.6C145.3,912.5,146.3,911.1,146.3,908z"/>
	<path class="st0" d="M79.1,881.7c-4.4-1.2-8.9-2.9-10.2-3.8s-8.6-1.7-16.4-1.7c-11.3-0.2-15.3-0.9-20.6-4
		c-9.5-5.5-11.4-9.3-11.4-23.9v-12.5h75h75v12.5c0,14.6-1.9,18.4-11.4,23.9c-5.2,3.1-9.4,4-19.8,4c-8.4,0.2-16.1,1.4-21.1,3.3
		C108,883.4,89.1,884.4,79.1,881.7z M111.3,867.4c12-3.8,15.5-6.7,15.5-12.7v-5.2H95.5H64.2v5c0,6.2,2.3,8.3,13.6,12.2
		S100.2,871,111.3,867.4z M51.7,856.4v-6.9h-9.4c-8.1,0-9.4,0.5-9.4,3.1c0,5.7,6.4,10.3,14.5,10.5C51.4,863.3,51.7,862.8,51.7,856.4
		z M155,858.8c1.6-1.5,3-4.3,3-6.2c0-2.6-1.3-3.1-9.4-3.1h-9.4v7v7.2l6.4-1C149.1,862.3,153.3,860.6,155,858.8z"/>
</g>
</svg>
