<?xml version="1.0" encoding="utf-8"?>
<!-- Generator: Adobe Illustrator 24.1.2, SVG Export Plug-In . SVG Version: 6.00 Build 0)  -->
<svg version="1.1" id="Layer_1" xmlns="http://www.w3.org/2000/svg" xmlns:xlink="http://www.w3.org/1999/xlink" x="0px" y="0px"
	 viewBox="0 0 17.2 15.5" style="enable-background:new 0 0 17.2 15.5;" xml:space="preserve">
<style type="text/css">
	.st0{fill:#FFC41D;}
</style>
<g transform="translate(0.000000,100.000000) scale(0.100000,-0.100000)">
	<path class="st0" d="M21.6,987.9c-1.7-0.8-4.7-3.3-6.8-5.7l-3.8-4.3v-53.8v-53.8l5-5.1l4.8-5.2l70.1-0.5L161,859v57.3v57.1h-58
		c-50.4,0-58,0.3-58,2.4c0,1.3-1.8,4.6-4.1,7.1C36.4,988.2,27.3,990.6,21.6,987.9z M36.7,979l3.8-3.8v-41.3v-41.3l-4.1,2.4
		c-5.3,2.9-10.7,2.9-16,0l-4.1-2.4v41.3v41.3l3.8,3.8c2.3,2.5,5.4,4,8.3,4S34.4,981.5,36.7,979z M155,916.3v-50.8H89.4H23.7l-3.6,4
		c-7.5,7.8-2.3,21.4,8.3,21.4c5,0,12.1-6,12.1-10.3c0-1.3,1.4-2.4,3-2.4c3,0,3,1.1,3,44.4v44.4h54.3H155V916.3z"/>
	<path class="st0" d="M120,944.4c1.8-2.1,3.3-4.4,3.3-5.2c0-0.8-3.5-5.1-7.5-9.4l-7.5-7.8l-8.3,8.6c-9.3,9.7-6.9,10.2-23.7-5.2
		c-6.3-5.9-9.8-10.2-9.2-11.6c1.4-3.7,3.3-2.7,14.2,7.6l10.6,9.8l8.1-8.6l8.3-8.6l9.5,9.8c5.1,5.4,9.9,9.8,10.7,9.8s2.9-1.7,4.8-4.1
		l3.6-4v11.1v11.3h-10.1h-9.9L120,944.4z"/>
	<path class="st0" d="M61.6,890.9c0-3,1.1-3.2,37.7-3.2s37.7,0.2,37.7,3.2s-1.1,3.2-37.7,3.2S61.6,893.9,61.6,890.9z"/>
</g>
</svg>
