<?xml version="1.0" encoding="utf-8"?>
<!-- Generator: Adobe Illustrator 24.1.2, SVG Export Plug-In . SVG Version: 6.00 Build 0)  -->
<svg version="1.1" id="Layer_1" xmlns="http://www.w3.org/2000/svg" xmlns:xlink="http://www.w3.org/1999/xlink" x="0px" y="0px"
	 viewBox="0 0 16 14" style="enable-background:new 0 0 16 14;" xml:space="preserve">
<style type="text/css">
	.st0{fill:#FFC41D;}
</style>
<g transform="translate(0.000000,48.000000) scale(0.100000,-0.100000)">
	<path class="st0" d="M29.6,478.2c-1.5-1.5-2.6-6.3-2.6-11.1c0-4.4-3.4-15.9-7.5-25.5c-5.3-12.2-7.5-25.5-7.5-44.7
		c0-15.9-1.5-27.4-3.8-27.4c-1.9,0-3.7-3.3-3.7-7.4c0-4.8,2.6-7.4,7.5-7.4s7.5-2.6,7.5-7.4s2.6-7.4,7.5-7.4s7.5,2.6,7.5,7.4
		c0,7,2.6,7.4,45,7.4s45-0.4,45-7.4c0-4.8,2.6-7.4,7.5-7.4c4.9,0,7.5,2.6,7.5,7.4s2.6,7.4,7.5,7.4s7.5,2.6,7.5,7.4
		c0,4.1-1.5,7.4-3.8,7.4s-3.8,12.2-3.8,29.6v29.6h-22.5H102v-14.8c0-8.1-1.5-14.8-3.8-14.8c-1.9,0-3.8-6.7-3.8-14.8
		c0-12.2-1.1-14.8-7.5-14.8c-6.8,0-7.5,2.6-7.5,27.4c0,17-2.3,32.5-6.4,41.4c-3.4,8.1-7.1,20.3-8.3,27.4c-2.3,12.2-3.4,12.9-17.3,14
		C39,480.4,31.1,479.7,29.6,478.2z M58.5,435c3.4-8.9,6-26.6,6-40.7v-24.8H45.8H27v24.8c0,29.2,9,56.5,18.8,56.5
		C49.9,450.9,54.4,445.3,58.5,435z M132,406.5c0-4.8-2.6-7.4-7.5-7.4c-4.9,0-7.5,2.6-7.5,7.4s2.6,7.4,7.5,7.4
		C129.4,413.9,132,411.3,132,406.5z M132,377c0-5.9-2.6-7.4-11.2-7.4s-11.3,1.5-11.3,7.4c0,5.9,2.6,7.4,11.3,7.4S132,382.9,132,377z
		"/>
</g>
</svg>
