<?xml version="1.0" standalone="no"?>
<!DOCTYPE svg PUBLIC "-//W3C//DTD SVG 20010904//EN"
 "http://www.w3.org/TR/2001/REC-SVG-20010904/DTD/svg10.dtd">
<svg version="1.0" xmlns="http://www.w3.org/2000/svg"
 width="100.000000pt" height="100.000000pt" viewBox="0 0 100.000000 100.000000"
 preserveAspectRatio="xMidYMid meet">

<g transform="translate(0.000000,100.000000) scale(0.100000,-0.100000)"
fill="#000000" stroke="none">
<path d="M105 948 c-6 -20 -14 -110 -21 -235 -6 -112 -6 -112 -33 -115 -25 -3
-26 -6 -26 -58 l0 -55 475 0 475 0 0 55 0 55 -106 3 -107 3 -6 112 c-3 62 -9
141 -13 177 l-8 65 -75 0 -75 0 -8 -65 c-4 -36 -10 -116 -13 -177 -5 -100 -8
-113 -24 -113 -16 0 -19 13 -24 113 -3 61 -9 141 -13 177 l-8 65 -75 0 -75 0
-8 -65 c-4 -36 -10 -116 -13 -177 -5 -100 -8 -113 -24 -113 -16 0 -19 13 -24
113 -3 61 -9 141 -13 177 l-8 65 -73 3 c-52 2 -73 -1 -77 -10z m115 -48 c0
-17 -7 -20 -40 -20 -33 0 -40 3 -40 20 0 17 7 20 40 20 33 0 40 -3 40 -20z
m240 0 c0 -17 -7 -20 -40 -20 -33 0 -40 3 -40 20 0 17 7 20 40 20 33 0 40 -3
40 -20z m240 0 c0 -17 -7 -20 -40 -20 -33 0 -40 3 -40 20 0 17 7 20 40 20 33
0 40 -3 40 -20z m-470 -86 c6 -14 10 -68 10 -120 l0 -94 -60 0 -60 0 0 94 c0
127 8 146 60 146 34 0 42 -4 50 -26z m240 0 c6 -14 10 -68 10 -120 l0 -94 -60
0 -60 0 0 94 c0 127 8 146 60 146 34 0 42 -4 50 -26z m240 0 c6 -14 10 -68 10
-120 l0 -94 -60 0 -60 0 0 94 c0 127 8 146 60 146 34 0 42 -4 50 -26z m230
-274 c0 -20 -7 -20 -440 -20 -433 0 -440 0 -440 20 0 20 7 20 440 20 433 0
440 0 440 -20z"/>
<path d="M587 434 c-4 -4 -7 -36 -7 -70 l0 -63 -47 -3 -48 -3 -3 -67 -3 -68
-79 0 -79 0 -3 68 -3 67 -115 0 -115 0 -3 -67 c-3 -64 -4 -67 -30 -70 -26 -3
-27 -6 -27 -58 l0 -55 475 0 475 0 0 55 c0 52 -1 55 -27 58 -26 3 -27 6 -30
70 l-3 67 -47 3 -47 3 -3 67 -3 67 -111 3 c-60 1 -113 -1 -117 -4z m193 -84
l0 -50 -80 0 -80 0 0 50 0 50 80 0 80 0 0 -50z m-500 -140 l0 -50 -80 0 -80 0
0 50 0 50 80 0 80 0 0 -50z m400 0 l0 -50 -80 0 -80 0 0 50 0 50 80 0 80 0 0
-50z m200 0 l0 -50 -80 0 -80 0 0 50 0 50 80 0 80 0 0 -50z m60 -110 c0 -20
-7 -20 -440 -20 -433 0 -440 0 -440 20 0 20 7 20 440 20 433 0 440 0 440 -20z"/>
</g>
</svg>
