<?xml version="1.0" encoding="utf-8"?>
<!-- Generator: Adobe Illustrator 24.1.2, SVG Export Plug-In . SVG Version: 6.00 Build 0)  -->
<svg version="1.1" id="Layer_1" xmlns="http://www.w3.org/2000/svg" xmlns:xlink="http://www.w3.org/1999/xlink" x="0px" y="0px"
	 viewBox="0 0 15.8 15.5" style="enable-background:new 0 0 15.8 15.5;" xml:space="preserve">
<style type="text/css">
	.st0{fill:#FFC41D;}
</style>
<g transform="translate(0.000000,128.000000) scale(0.100000,-0.100000)">
	<path class="st0" d="M11.2,1263.9c-4.5-5.6-8-10.7-7.8-11.4c0.3-0.7,1.9-1.4,3.8-1.6l3.4-0.4l0.3-23.7c0.4-20.2,0.6-23.7,2.3-23.7
		s1.9,3.7,2.3,25.5c0.3,24.6,0.3,25.7-2.1,26.2c-2.3,0.6-2.1,1.1,2.1,6.3c2.5,3.2,4.9,5.7,5.3,5.7s2.8-2.6,5.3-5.7
		c4.3-5.3,4.4-5.7,2.1-6.3c-2-0.5-2.4-1.6-2.4-7.1c0-5.7,0.3-6.6,2.5-6.6c2.1,0,2.5,0.8,2.5,4.6c0,4.2,0.4,4.7,3.4,5
		c1.8,0.2,3.5,0.9,3.8,1.6c0.5,1.4-15.4,21.6-17.2,21.6C20,1274.1,15.7,1269.5,11.2,1263.9z"/>
	<path class="st0" d="M50.4,1252.3c-15.1-11.9-27.1-22.4-26.9-23.2c0.3-0.7,4.3-1.4,10-1.6l9.7-0.4l0.3-46.5
		c0.4-40.4,0.6-46.5,2.3-46.5s1.9,6.2,1.9,48.6v48.6l-7.3,0.6l-7.3,0.6l22.1,17.6c12.2,9.7,22.6,17.6,23.3,17.6
		c0.6,0,11-7.8,23.2-17.6l22.1-17.6l-7.4-0.6l-7.3-0.6v-48.6c0-42.4,0.3-48.6,1.9-48.6s1.9,3,2.3,18.9l0.3,18.7l3.8-0.5l3.8-0.5
		l0.3-18.4c0.4-15.3,0.6-18.3,2.3-18.3c2.9,0,3.5,39.2,0.6,41.1c-1.6,1.2-1.1,2.1,3.8,7l5.6,5.7l5.6-5.7c4.9-4.9,5.4-5.9,3.8-7
		c-2.9-1.9-2.3-41.1,0.6-41.1c1.6,0,1.9,2.9,2.3,18.5l0.4,18.4h3c6.7,0,5.1,3-8.7,17l-6.9,7l-4.8-4.7c-2.6-2.6-7.2-7.3-10-10.4
		l-5.4-5.7v26.5v26.5l9.7,0.4c5.6,0.2,9.8,0.9,10,1.6c0.5,1.3-50.6,43.2-54,44.5C78.3,1273.9,65.3,1264.4,50.4,1252.3z"/>
	<path class="st0" d="M126.8,1266c-8.7-8.1-9.5-10.7-3.9-10.7c2.8,0,3-0.5,3.4-6.7c0.3-5.2,0.9-6.8,2.3-6.8c2.8,0,3.4,15.8,0.8,17.7
		c-1.6,1.1-1.3,1.9,2.4,5.2l4.4,4l4.4-4c3.6-3.3,4-4.1,2.4-5.2c-2.6-1.9-2-17.7,0.8-17.7c1.4,0,2,1.6,2.3,6.8
		c0.4,6.2,0.6,6.7,3.4,6.7c5.6,0,4.8,2.6-3.9,10.7c-4.8,4.5-8.9,8.1-9.3,8.1C135.7,1274.1,131.5,1270.5,126.8,1266z"/>
	<path class="st0" d="M68.3,1236.4c-12.4-6-16.1-19.7-8.2-30.7c3.8-5.3,3.9-8.2,0.6-11.2c-3.3-3-3.1-6.4,0.1-9.3
		c3.4-2.7,5.9-5,8.8-8.1c4.4-4.8,12.9-4.8,17.3,0c2.9,3,5.4,5.4,8.8,8.1c1.4,1.3,2.6,3.3,2.6,4.6c0,3.4-4.5,7-8.8,7h-3.8v7.6
		c0,6.4,0.4,7.7,2.6,8.8c2,1.1,2.5,2.2,2.1,6.2c-0.4,4.5-0.6,4.9-3.5,4.6c-1.8-0.1-5.6-0.4-8.8-0.4s-7,0.2-8.8,0.4
		c-2.9,0.4-3.1-0.1-3.5-4.6c-0.3-3.9,0.1-5.2,2.1-6.1c1.8-0.9,2.6-2.7,2.9-6.3c0.3-3.4,1-4.9,2.3-4.9c1.4,0,2,1.6,2.3,6.1
		c0.4,5.2,0,6.2-2.1,7.4c-4.4,2.1-2.9,3.2,4.9,3.2s9.3-1.1,5-3.2c-2.1-1.1-2.5-2.5-2.5-10v-8.8h-6.3h-6.3v4c0,2.1-0.9,4.6-2,5.5
		c-8.4,6.6-6.7,19.8,3.5,25.7c8,4.6,18.3,1.9,23.6-6.1c4.3-6.6,3.4-11.6-4-21.1c-1.1-1.4-1.1-2.5-0.3-3.3
		c3.4-3.2,11.8,8.3,11.8,16.4c0,4.8-3.6,12.7-7,15.5c-3.6,2.9-11.2,5.6-15.9,5.6C75.7,1239,71.3,1237.8,68.3,1236.4z M92.8,1189.8
		c0-1.4-2.5-1.9-13.7-2.1c-13.3-0.4-17.1,0.5-15.2,3.2c0.5,0.9,5.5,1.3,14.8,1.1C90.3,1191.6,92.8,1191.2,92.8,1189.8z M84.6,1181.6
		c0-2.3-6-4-9.4-2.6c-5,2.1-3.6,3.7,3.1,3.7C81.9,1182.7,84.6,1182.1,84.6,1181.6z"/>
	<path class="st0" d="M141.6,1230.4c-0.4-0.9-0.5-4.6-0.3-8c0.3-4.7,0.9-6.3,2.3-6.3c2.5,0,2.8,14.8,0.4,15.5
		C143.1,1231.9,142.1,1231.4,141.6,1230.4z"/>
	<path class="st0" d="M26.1,1221c-1.3-3.3,0-9.6,2-9.6c1.4,0,1.9,1.4,1.9,5.2C30,1221.7,27.6,1224.6,26.1,1221z"/>
	<path class="st0" d="M124.1,1221c-0.4-0.8-0.6-5.5-0.4-10.3c0.3-6.8,0.8-8.7,2.3-8.7s1.9,1.9,1.9,9.8c0,6.9-0.5,10.1-1.5,10.3
		C125.5,1222.6,124.5,1222,124.1,1221z"/>
	<path class="st0" d="M141.6,1209.6c-1.3-2,1.6-4.2,3.4-2.6c1.5,1.4,0.5,3.9-1.4,3.9C143,1210.8,142.1,1210.3,141.6,1209.6z"/>
	<path class="st0" d="M14,1197.4c-6-4.9-10.9-9.4-10.9-10c0-1.6,21.6-18.9,23.1-18.4c0.8,0.2,1.5,1.8,1.8,3.5c0.4,2.6,1.1,3,5,3.4
		c3.1,0.2,4.6,0.9,4.6,2.1c0,2.6-11.9,3.2-13.9,0.6c-1.3-1.5-2.3-1.2-7.5,3.5l-6.1,5.3l6.1,5.3c5.3,4.7,6.3,5,7.5,3.5
		c2-2.6,13.9-2,13.9,0.6c0,1.2-1.5,1.9-4.6,2.1c-3.9,0.4-4.6,0.8-5,3.4c-0.3,1.8-1,3.3-1.8,3.5C25.4,1206,19.9,1202.2,14,1197.4z"/>
	<path class="st0" d="M61.3,1171.8c-1.4-3.4,0-11.9,2-11.9c2.4,0,2.8,12.4,0.4,13.1C62.8,1173.4,61.7,1172.8,61.3,1171.8z"/>
	<path class="st0" d="M91.4,1169.5c-1.4-3.4,0-11.9,2-11.9c2.4,0,2.8,12.4,0.4,13.1C92.9,1171,91.8,1170.4,91.4,1169.5z"/>
	<path class="st0" d="M11.5,1169.1c-0.5-0.5-0.9-4.3-0.9-8.6c0-13.4,7.2-20.4,20.1-19.8c5.1,0.2,6.9,0.8,6.9,2.1s-1.9,1.9-6.9,2.3
		c-7.7,0.7-11.8,2.5-13.3,5.5c-0.5,1.2-1.3,5.7-1.6,10.2C15,1168.4,13.6,1171.1,11.5,1169.1z"/>
	<path class="st0" d="M76.3,1164.8c-1.3-3.3,0-9.6,2-9.6c1.4,0,1.9,1.4,1.9,5.2C80.2,1165.5,77.8,1168.3,76.3,1164.8z"/>
	<path class="st0" d="M26.5,1163.2c-1.5-1.3-0.9-5.9,0.9-7.3c2.5-2,10.2-1.2,10.2,1.1c0,1.1-1.4,1.9-3.3,2.1c-2.1,0.2-3.6,1.3-4,2.7
		C29.7,1164,28,1164.7,26.5,1163.2z"/>
	<path class="st0" d="M61.3,1153.1c-1.1-2.9,0-7.3,2-7.3c1.3,0,1.9,1.2,1.9,4C65.2,1154,62.5,1156.1,61.3,1153.1z"/>
	<path class="st0" d="M91.4,1151c-1.3-2,1.6-4.2,3.4-2.6c1.5,1.4,0.5,3.9-1.4,3.9C92.8,1152.3,91.9,1151.7,91.4,1151z"/>
	<path class="st0" d="M76.3,1148.6c-1.3-2,1.6-4.2,3.4-2.6c1.5,1.4,0.5,3.9-1.4,3.9C77.7,1149.9,76.8,1149.3,76.3,1148.6z"/>
</g>
</svg>
