<?xml version="1.0" encoding="utf-8"?>
<!-- Generator: Adobe Illustrator 24.1.2, SVG Export Plug-In . SVG Version: 6.00 Build 0)  -->
<svg version="1.1" id="Layer_1" xmlns="http://www.w3.org/2000/svg" xmlns:xlink="http://www.w3.org/1999/xlink" x="0px" y="0px"
	 viewBox="0 0 100 100" style="enable-background:new 0 0 100 100;" xml:space="preserve">
<style type="text/css">
	.st0{fill:#FFC41D;}
</style>
<g transform="translate(0.000000,100.000000) scale(0.100000,-0.100000)">
	<path class="st0" d="M381,844C219,801,84,657,49,492c-15-74-6-182,20-254c29-77,40-84,88-59c64,33,80,48,66,62c-10,10-21,8-53-10
		l-40-23l-19,44c-11,24-22,62-26,85l-7,42l49,3c35,2,48,7,48,18s-13,16-47,18c-30,2-48,8-48,15c0,16,29,127,36,138c3,5,23,0,45-11
		c22-12,44-18,49-15c20,12,9,32-25,48c-19,9-35,22-35,28c0,16,57,85,90,109l29,20l22-40c23-41,49-53,49-22c0,9-9,32-20,49
		c-19,32-19,33-1,43c21,11,128,40,148,40c7,0,13-18,15-47c2-35,7-48,18-48s16,13,18,48c2,29,8,47,15,47c16,0,127-29,138-36
		c5-3,0-23-11-45c-12-22-18-44-15-49c12-20,32-9,48,25c9,19,22,35,30,35c17,0,81-54,107-90l20-29l-40-22c-41-23-53-49-22-49
		c9,0,32,9,49,20c32,19,33,19,43,1c11-21,40-128,40-148c0-7-18-13-47-15c-35-2-48-7-48-18s13-16,48-18l49-3l-7-42c-4-23-15-61-26-85
		l-19-44l-40,23c-32,18-43,20-53,10c-14-14,2-29,66-62c48-25,58-18,88,59c43,115,34,264-22,374c-30,58-122,153-184,188
		C625,857,493,874,381,844z"/>
	<path class="st0" d="M635,504c-74-44-96-53-122-48c-36,7-73-22-73-56c0-26,34-60,60-60c25,0,60,34,60,58c1,11,34,36,96,72
		c60,34,94,60,92,69C743,564,727,559,635,504z M516,409c10-17-13-36-27-22c-12,12-4,33,11,33C505,420,512,415,516,409z"/>
	<path class="st0" d="M365,229c-15-24,16-30,141-27c107,3,129,6,129,18s-23,15-132,18C414,240,369,237,365,229z"/>
</g>
</svg>
