<?xml version="1.0" encoding="utf-8"?>
<!-- Generator: Adobe Illustrator 24.1.2, SVG Export Plug-In . SVG Version: 6.00 Build 0)  -->
<svg version="1.1" id="Layer_1" xmlns="http://www.w3.org/2000/svg" xmlns:xlink="http://www.w3.org/1999/xlink" x="0px" y="0px"
	 viewBox="0 0 15 14" style="enable-background:new 0 0 15 14;" xml:space="preserve">
<style type="text/css">
	.st0{fill:#FFC41D;}
</style>
<g transform="translate(0.000000,64.000000) scale(0.100000,-0.100000)">
	<path class="st0" d="M69,634.5c-7.3-9.9-5.4-14.4,6.2-14.4c8.3,0,10.4,1,10.4,4.5c0,5-7,15.4-10.4,15.4C73.9,640,71,637.5,69,634.5
		z"/>
	<path class="st0" d="M36.3,631.8c-7.3-4.5-8-5.5-4.1-6.2c2.6-0.5,7.8,2,11.7,5.5C51.9,639,48.5,639.3,36.3,631.8z"/>
	<path class="st0" d="M51.3,630.1c-8-6.9-8.3-7.2-2.6-7.4c3.1,0,6.5,0,7.5-0.2c0.8,0,3.1,3.2,4.9,7.4
		C65.3,639.5,62,639.5,51.3,630.1z"/>
	<path class="st0" d="M89.2,629.8c1.8-4.2,4.1-7.4,4.9-7.4c1,0.2,4.4,0.2,7.8,0.2c5.4,0.2,5.2,0.5-2.9,7.4
		C88.4,639.5,85,639.5,89.2,629.8z"/>
	<path class="st0" d="M106.6,631.1c3.9-3.7,9.1-5.9,11.7-5.5c3.9,0.7,3.1,2-4.4,6.4C101.4,639.3,98.5,639,106.6,631.1z"/>
	<path class="st0" d="M16.9,614.7l-7.3-8.2l7.5-2.7c7.3-3,7.8-2.5,12.2,5.9c3.4,6.9,3.6,9.4,1.3,10.9
		C25.4,623.6,24.4,623.2,16.9,614.7z"/>
	<path class="st0" d="M119.8,620.4c-2.9-1.7-2.6-3.7,1.3-10.9c4.4-8.4,4.9-8.7,12.2-5.7l7.5,2.7l-7.3,8.2
		C126,623.2,125,623.6,119.8,620.4z"/>
	<path class="st0" d="M34.7,610c-4.9-9.2-2.3-12.1,10.9-12.1c7.5,0,8.3,0.7,9.3,8.7c1.3,10.4,0.8,11.2-8.6,11.2
		C40.7,617.7,38.1,615.7,34.7,610z"/>
	<path class="st0" d="M97.2,616.2c-1.6-0.5-2.3-5-1.8-9.7c1-7.9,1.8-8.7,9.3-8.7c13.2,0,15.8,3,10.9,12.1
		C111.5,617.2,105.3,619.4,97.2,616.2z"/>
	<path class="st0" d="M61.5,613.7c-1-1-1.8-5.5-1.8-10.2v-8.2h15.8H91l-0.8,9.4l-0.8,9.2l-13,0.7C69.2,615.2,62.5,614.7,61.5,613.7z
		"/>
	<path class="st0" d="M2.9,589.7c-4.7-17.8-4.1-19.1,7.3-19.1H20l1.8,12.6c1,6.9,1.3,13.1,0.8,13.6c-0.5,0.5-4.4,1.7-8.8,2.5
		C6.2,600.8,5.7,600.4,2.9,589.7z"/>
	<path class="st0" d="M131.2,598.6c-3.9-1-4.4-2.7-3.1-10.2c0.8-5.2,1.6-11.2,1.6-13.4c0-2.7,2.1-4.5,5.2-4.5c3.9,0,5.2-1.7,5.2-6.2
		c0-5.5-1-6.2-10.1-6.2c-5.7,0-11.4-1.5-13.2-3.7c-1.8-2-7.3-3.7-11.9-3.7c-6.7,0-8.8,1-8.8,4.5c0,7.2,10.9,15.4,20.7,15.4h8.6
		l-1.8,11.6c-0.8,6.2-1.8,11.6-2.3,11.9c-0.3,0.2-5.4,0-11.4-0.7l-11.1-1V581c0-6.9-1.6-12.9-4.1-15.6c-2.9-3-4.1-8.9-4.1-17.6
		c0-7.2-1-14.1-2.1-15.6c-1-1.2-2.6-8.7-2.9-16.1c-0.8-10.9-0.3-13.6,2.9-13.6s3.6,2.7,3.1,12.6c-0.5,7.4,0.3,13.6,1.8,14.4
		c1.6,1,2.9,5,2.9,9.2c0,6.7,0.8,7.2,10.1,7.2c6,0,11.4,1.5,13.5,4c2.3,2.7,6.7,3.7,15,3l11.9-0.7l-0.8,8.4c-0.5,5,0.5,9.2,2.3,10.4
		c2.6,1.5,2.6,4.5,0,15.6C144.7,600.6,143.4,601.6,131.2,598.6z"/>
	<path class="st0" d="M27.5,587.7c-2.9-13.4-2.1-17.1,3.6-17.1c4.1,0,5.2-1.7,5.2-7.4c0-6.7-0.8-7.4-8.8-7.4
		c-4.7,0-10.1,1.7-11.9,3.7c-3.6,4.2-15.6,5.2-15.6,1.2c0-1.2,2.1-2.5,4.9-2.5c2.6,0,6.2-1.7,8-3.7c1.8-2.2,7.5-3.7,13.2-3.7
		c8.6,0,10.1-0.7,10.1-5.2c0-4.7-1.3-5.2-13.5-4.2c-10.9,0.5-13.7,0-13.7-3s3.1-3.5,15.6-2.7c8.6,0.2,16.1,1.2,16.6,1.5
		c0.5,0.5,0.8,8.2,0.8,17.1c0,14.6,0.5,16.4,4.9,16.4s4.9-1.7,4.9-15.6c0-12.9,1-16.6,5.4-20.6s5.2-6.9,4.4-19.6
		c-0.5-11.9,0-14.9,3.1-14.9c3.1,0,3.6,3,3.1,14.4c-0.5,8.4,0.3,15.6,2.1,17.8c1.6,1.7,2.9,11.2,3.1,20.8v17.6h10.1
		c10.1,0,10.1,0,10.1,9.9v9.9H75.2H57v-9.9c0-5.5-1-9.9-2.6-9.9c-1.3,0-2.6,5-2.6,11.2c0,10.7-0.3,11.2-7.5,11.2
		c-4.1,0-9.3,0.5-11.4,1.5C30.3,595.2,28.8,593.4,27.5,587.7z M66.9,553.3c0.3-9.4-0.5-17.3-1.8-17.3c-5.2,0-8,7.2-8,20.3
		c0,12.4,0.8,14.4,4.9,14.4C66.1,570.6,66.9,568.6,66.9,553.3z"/>
	<path class="st0" d="M118.8,534.2l-12.4-1l-0.3-9.9c-0.3-5.2-0.5-11.2-0.8-12.6c-0.3-1.7,1.6-3.2,3.6-3.2c3.1,0,3.6,2.5,3.1,10.7
		l-1,10.9l12.7-1c9.3-0.5,12.4,0,12.4,2.7C136.1,534.9,134.6,535.2,118.8,534.2z"/>
	<path class="st0" d="M24.1,523c-2.6-4.2,1.8-5.7,15.3-5.5c9.6,0,13.7,1,13.7,3.5c0,2.5-4.1,3.5-13.7,3.5
		C31.6,524.8,24.9,524,24.1,523z"/>
</g>
</svg>
